<?xml version="1.0" standalone="no"?>
<!DOCTYPE svg PUBLIC "-//W3C//DTD SVG 20010904//EN"
 "http://www.w3.org/TR/2001/REC-SVG-20010904/DTD/svg10.dtd">
<svg version="1.0" xmlns="http://www.w3.org/2000/svg"
 width="6549.000000pt" height="4983.000000pt" viewBox="0 0 6549.000000 4983.000000"
 preserveAspectRatio="xMidYMid meet">

<g transform="translate(0.000000,4983.000000) scale(0.100000,-0.100000)"
fill="#000000" stroke="none">
<path d="M21612 48269 c-96 -11 -241 -60 -326 -111 -83 -49 -199 -157 -265
-247 -149 -204 -219 -441 -193 -656 26 -211 101 -368 283 -595 l32 -40 -29
-34 c-77 -92 -813 -852 -1053 -1089 l-271 -268 0 -1595 0 -1595 453 3 c483 5
507 7 609 59 69 35 143 113 182 193 40 81 31 43 647 2561 208 853 384 1562
390 1578 8 20 34 39 92 69 207 108 354 279 474 551 l43 97 0 179 0 179 -54
130 c-104 246 -196 370 -360 483 -115 81 -256 129 -431 149 -101 11 -119 11
-223 -1z"/>
<path d="M18730 40082 l0 -979 583 -8 c603 -7 1241 0 1314 16 187 40 298 154
339 348 13 64 15 161 12 650 -3 525 -5 581 -22 631 -55 166 -129 240 -296 296
-52 18 -112 19 -992 22 l-938 3 0 -979z"/>
<path d="M62422 24747 l-142 -142 -2 -760 -3 -760 -355 403 -355 402 -344
-344 -343 -343 812 -919 c744 -841 816 -919 847 -922 l33 -3 0 1765 c0 971 -1
1766 -3 1766 -1 0 -66 -64 -145 -143z"/>
<path d="M37588 23593 l-488 -488 0 -748 0 -747 1005 0 1005 0 0 49 0 48 -62
12 c-169 33 -394 99 -511 150 -112 49 -238 160 -311 274 -50 77 -90 182 -117
302 -22 98 -23 118 -28 868 l-6 767 -487 -487z"/>
<path d="M46007 23123 c-3 -5 -22 -53 -42 -108 -98 -265 -265 -546 -414 -695
-174 -174 -418 -304 -684 -365 -199 -46 -243 -48 -953 -52 l-681 -4 -144 -145
-144 -144 1407 0 1408 0 5 23 c10 41 325 1488 325 1493 0 7 -79 4 -83 -3z"/>
<path d="M52803 23113 c-96 -276 -247 -558 -392 -730 -167 -199 -432 -353
-727 -424 -209 -50 -249 -52 -970 -56 l-681 -4 -144 -145 -144 -144 1407 0
c1331 0 1407 1 1412 18 6 18 326 1490 326 1498 0 2 -18 4 -40 4 -30 0 -42 -5
-47 -17z"/>
<path d="M36335 22339 c-428 -429 -539 -545 -500 -524 100 56 272 173 370 252
119 96 335 315 426 433 78 99 269 390 257 390 -2 0 -251 -248 -553 -551z"/>
<path d="M48880 20190 c0 -27 3 -30 33 -30 51 0 215 -47 294 -85 43 -20 90
-52 116 -79 55 -56 111 -162 140 -263 l22 -78 3 -2260 c2 -1619 0 -2288 -8
-2359 -28 -246 -127 -386 -335 -473 -55 -23 -187 -53 -235 -53 -27 0 -30 -3
-30 -30 l0 -30 905 0 905 0 0 29 c0 28 -1 28 -72 35 -274 25 -443 152 -517
389 l-26 82 -3 1073 -3 1072 38 0 c21 0 101 -7 178 -15 841 -90 1537 88 1945
495 195 196 318 428 382 724 19 86 22 132 22 311 0 179 -3 225 -22 308 -90
408 -310 727 -654 951 -179 117 -439 222 -654 265 -242 49 -291 51 -1391 51
l-1033 0 0 -30z m2053 -145 c448 -82 736 -313 918 -736 84 -193 119 -377 126
-651 10 -389 -45 -674 -173 -891 -142 -243 -453 -430 -830 -498 -166 -31 -490
-31 -715 0 -86 11 -164 23 -173 27 -15 6 -16 114 -16 1364 l0 1358 63 11 c34
6 105 15 157 21 52 5 111 12 130 14 82 10 429 -3 513 -19z"/>
<path d="M54501 18308 c-165 -522 -1092 -3367 -1116 -3423 -94 -228 -204 -340
-375 -384 -51 -13 -76 -24 -78 -35 -3 -15 38 -16 447 -16 433 0 451 1 451 19
0 15 -11 19 -70 24 -165 14 -240 97 -240 265 0 91 40 239 201 743 l163 509
660 -2 659 -3 189 -573 c107 -326 193 -604 200 -647 9 -58 9 -86 -1 -131 -26
-113 -92 -150 -288 -161 -92 -5 -103 -8 -103 -24 0 -18 23 -19 620 -19 599 0
620 1 620 19 0 15 -10 20 -49 25 -99 13 -152 35 -207 88 -70 66 -118 139 -175
268 -26 58 -309 867 -630 1798 l-583 1692 -142 0 -142 0 -11 -32z m328 -1242
c166 -488 301 -894 301 -902 0 -12 -93 -14 -601 -14 l-600 0 7 23 c34 108 460
1448 510 1606 44 135 69 200 74 190 5 -7 144 -414 309 -903z"/>
<path d="M56690 18271 c0 -28 0 -28 73 -33 138 -9 263 -102 303 -225 18 -56
19 -110 19 -1648 l0 -1590 -23 -57 c-49 -121 -151 -197 -297 -221 -61 -9 -75
-15 -75 -29 0 -17 32 -18 605 -18 583 0 605 1 605 19 0 15 -10 19 -63 24 -145
14 -257 89 -313 210 l-29 62 -3 779 -3 779 103 -6 c135 -9 213 -28 323 -81
146 -69 304 -210 436 -388 32 -44 177 -276 321 -516 285 -475 387 -637 497
-786 l71 -96 350 0 c336 0 350 1 350 19 0 14 -10 20 -44 25 -76 12 -201 80
-273 149 -128 122 -192 218 -507 757 -115 195 -236 398 -271 450 -137 206
-290 363 -447 458 -43 26 -77 50 -78 53 0 4 33 14 73 24 176 42 317 117 439
233 185 177 278 399 278 668 0 481 -281 854 -730 968 -162 41 -271 46 -1002
46 l-688 0 0 -29z m1250 -93 c179 -25 321 -92 448 -212 103 -97 169 -195 212
-313 51 -139 70 -249 70 -403 0 -175 -24 -292 -83 -415 -139 -288 -435 -415
-964 -415 l-133 0 0 874 c0 597 3 877 10 881 37 23 287 25 440 3z"/>
<path d="M60150 18275 c0 -22 4 -25 33 -25 44 0 139 -25 188 -51 67 -34 126
-95 151 -157 l23 -57 0 -1610 0 -1610 -27 -57 c-56 -120 -151 -188 -293 -211
-61 -9 -75 -15 -75 -29 0 -17 32 -18 600 -18 578 0 600 1 600 19 0 15 -10 19
-59 24 -174 18 -296 124 -330 287 -9 40 -11 264 -9 828 l3 774 843 -966 843
-966 414 0 c408 0 415 0 415 20 0 14 -7 20 -21 20 -38 0 -219 40 -274 61 -75
28 -157 84 -240 166 -61 59 -1635 1854 -1643 1872 -5 13 1472 1477 1538 1525
36 27 82 57 103 68 48 24 186 55 290 64 72 6 77 8 77 30 l0 24 -525 0 -525 0
0 -23 c0 -22 6 -25 78 -35 154 -24 193 -46 206 -116 5 -28 1 -49 -18 -91 -26
-58 17 -13 -1124 -1168 l-443 -449 3 779 3 778 31 66 c35 74 85 129 144 159
49 25 143 50 187 50 29 0 33 3 33 25 l0 25 -600 0 -600 0 0 -25z"/>
<path d="M28712 12377 c-38 -36 -84 -73 -103 -82 -19 -10 -79 -57 -134 -105
-535 -462 -1151 -933 -1585 -1210 -594 -380 -1000 -551 -1587 -669 -816 -163
-1926 -158 -2888 15 -675 121 -1150 290 -2018 717 l-348 171 -900 -900 -900
-900 168 -79 c928 -436 1617 -705 2383 -931 729 -215 1308 -304 1980 -304
1201 1 2275 366 3280 1115 802 598 1734 1466 2610 2430 192 211 473 532 478
544 2 6 -155 115 -340 235 l-27 18 -69 -65z"/>
<path d="M40271 2893 c8 -10 99 -119 203 -243 155 -185 194 -226 218 -228 15
-2 28 -1 28 2 0 2 -63 112 -139 243 l-139 238 -93 3 c-87 3 -91 2 -78 -15z"/>
<path d="M29760 2065 c0 -217 2 -265 14 -265 9 0 15 18 20 55 14 121 61 194
150 236 87 40 161 49 419 49 l227 0 -2 -957 c-3 -898 -4 -960 -21 -991 -25
-46 -89 -89 -153 -102 -30 -6 -54 -16 -54 -21 0 -5 137 -9 340 -9 216 0 340 4
340 10 0 5 -12 12 -27 16 -104 23 -144 48 -176 113 l-22 46 0 945 0 945 260 0
c243 0 265 -1 333 -23 122 -38 178 -107 203 -246 6 -36 15 -66 20 -66 5 0 9
115 9 265 0 146 -3 265 -6 265 -4 0 -24 -16 -46 -36 -82 -73 -25 -69 -893 -69
-871 0 -823 -4 -882 70 -52 65 -53 59 -53 -230z"/>
<path d="M48490 2065 c0 -210 3 -265 13 -265 8 0 17 24 24 66 17 98 56 170
112 205 88 56 122 62 414 67 l267 4 0 -949 c0 -898 -1 -950 -19 -988 -29 -65
-77 -98 -173 -119 -16 -4 -28 -11 -28 -16 0 -6 124 -10 340 -10 216 0 340 4
340 10 0 5 -12 12 -27 15 -112 23 -161 57 -190 133 -17 44 -18 103 -18 982 l0
935 265 0 c292 -1 331 -6 421 -64 56 -35 95 -107 112 -205 7 -42 16 -66 24
-66 10 0 13 55 13 265 0 293 0 292 -60 230 -71 -73 -36 -70 -890 -70 -719 0
-768 1 -813 18 -28 11 -58 32 -73 53 -52 68 -54 59 -54 -231z"/>
<path d="M1013 2280 c-367 -38 -709 -270 -881 -598 -303 -580 -67 -1293 521
-1573 331 -157 735 -139 1048 48 557 331 725 1076 366 1626 -225 345 -637 539
-1054 497z m248 -75 c235 -41 395 -136 531 -315 61 -80 130 -220 158 -320 62
-226 66 -594 10 -814 -50 -198 -120 -327 -245 -451 -104 -103 -194 -157 -340
-201 -80 -24 -106 -27 -240 -28 -128 -1 -162 3 -230 22 -167 48 -312 141 -416
266 -60 73 -150 252 -179 356 -35 125 -50 256 -50 425 0 264 33 424 127 615
52 105 65 124 157 215 79 79 118 110 181 142 176 90 356 120 536 88z"/>
<path d="M10785 2284 c-164 -14 -302 -52 -435 -119 -318 -161 -530 -437 -605
-790 -22 -99 -25 -320 -6 -425 81 -458 428 -824 870 -920 627 -136 1217 255
1353 895 19 93 16 362 -6 465 -28 132 -88 275 -165 392 -168 253 -435 431
-725 482 -89 16 -219 25 -281 20z m255 -89 c195 -45 334 -129 451 -274 106
-130 160 -244 200 -426 27 -117 37 -448 19 -592 -62 -498 -367 -808 -815 -830
-241 -12 -445 62 -611 220 -202 191 -304 478 -304 852 0 372 110 677 312 860
199 180 478 251 748 190z"/>
<path d="M46763 2279 c-459 -44 -861 -387 -979 -834 -32 -123 -43 -336 -25
-465 70 -477 427 -859 891 -954 240 -48 486 -21 697 79 341 161 575 468 640
840 23 135 14 367 -21 500 -119 457 -510 789 -984 835 -107 10 -104 11 -219
-1z m250 -74 c193 -34 319 -97 442 -220 208 -210 288 -443 289 -845 0 -280
-33 -440 -130 -630 -108 -210 -278 -348 -510 -412 -65 -18 -105 -22 -229 -22
-134 1 -159 4 -240 28 -331 101 -545 366 -608 756 -60 370 -5 729 150 978 173
278 507 424 836 367z"/>
<path d="M61508 2280 c-463 -42 -830 -330 -979 -768 -96 -284 -76 -628 52
-886 166 -332 435 -531 809 -598 90 -16 159 -21 315 -21 240 -1 437 22 623 72
l42 12 0 342 c1 358 4 392 47 439 25 28 87 58 136 66 22 4 42 13 45 20 3 9
-72 12 -343 12 -365 0 -406 -6 -275 -39 79 -20 127 -52 149 -100 24 -54 29
-537 6 -616 -29 -101 -115 -134 -375 -142 -251 -8 -434 27 -586 112 -220 123
-370 368 -430 700 -22 123 -25 430 -5 550 28 172 102 344 202 472 157 201 469
328 762 308 279 -18 511 -147 600 -333 19 -39 37 -80 40 -92 3 -11 10 -20 16
-20 8 0 11 76 11 250 0 141 -4 250 -9 250 -5 0 -25 -16 -44 -35 -45 -45 -61
-45 -281 0 -150 30 -362 57 -421 54 -11 -1 -59 -5 -107 -9z"/>
<path d="M29135 2250 c-4 -11 -17 -28 -31 -36 -22 -15 -30 -14 -121 12 -89 26
-112 29 -248 29 -132 0 -159 -3 -224 -24 -248 -81 -421 -317 -421 -571 0 -158
58 -298 170 -411 78 -78 135 -118 340 -234 274 -155 376 -239 433 -354 31 -63
32 -71 32 -186 0 -111 -2 -125 -29 -182 -64 -140 -201 -213 -396 -213 -101 0
-167 14 -255 54 -133 61 -233 180 -287 340 -15 45 -32 82 -37 84 -8 3 -11 -82
-11 -267 0 -223 2 -271 14 -271 8 0 16 16 20 40 3 22 15 49 26 60 23 23 40 19
164 -34 129 -56 202 -70 361 -70 219 0 349 48 476 174 202 200 215 551 27 739
-98 98 -173 149 -528 355 -139 81 -257 195 -291 281 -21 52 -24 77 -24 190 0
127 1 132 34 203 43 92 132 179 218 213 83 33 242 33 326 0 116 -46 241 -199
262 -320 4 -25 12 -41 21 -41 12 0 14 39 14 230 0 193 -2 230 -14 230 -8 0
-18 -9 -21 -20z"/>
<path d="M40435 2238 c-2 -7 -142 -438 -310 -958 -167 -520 -321 -977 -340
-1016 -42 -85 -105 -148 -167 -164 -23 -7 -49 -14 -55 -16 -7 -2 -13 -8 -13
-14 0 -6 85 -10 250 -10 251 0 302 8 195 30 -94 20 -127 85 -105 211 7 35 53
192 104 349 l91 285 371 3 370 2 107 -323 c116 -353 129 -412 100 -467 -20
-39 -56 -55 -145 -65 -32 -4 -58 -11 -58 -16 0 -5 139 -9 345 -9 230 0 345 3
345 10 0 12 -10 16 -65 25 -61 10 -132 88 -176 195 -20 47 -181 507 -359 1023
l-323 937 -79 0 c-54 0 -80 -4 -83 -12z m182 -708 l172 -510 -339 0 -338 0 32
103 c191 603 292 917 296 917 3 0 82 -230 177 -510z"/>
<path d="M58997 2243 c-3 -5 -145 -438 -315 -965 -207 -638 -322 -980 -347
-1028 -54 -101 -95 -133 -212 -166 -7 -2 -13 -8 -13 -14 0 -6 85 -10 250 -10
145 0 250 4 250 9 0 5 -24 14 -52 21 -69 14 -94 32 -108 76 -22 66 -5 146 96
466 l98 308 370 -2 370 -3 109 -330 c156 -472 154 -496 -55 -520 -32 -3 -58
-11 -58 -16 0 -5 142 -9 351 -9 274 0 350 3 347 12 -3 7 -24 16 -48 20 -77 13
-119 52 -174 158 -31 60 -170 456 -559 1587 l-142 413 -77 0 c-42 0 -79 -3
-81 -7z m178 -716 l171 -502 -335 -3 c-184 -1 -335 -1 -337 1 -2 2 136 440
303 964 9 29 19 50 22 47 3 -3 82 -231 176 -507z"/>
<path d="M2780 2211 c0 -5 31 -18 68 -30 83 -25 136 -64 225 -166 l68 -77 -3
-831 c-3 -780 -4 -835 -21 -882 -32 -86 -73 -118 -179 -140 -16 -3 -28 -10
-28 -15 0 -6 100 -10 270 -10 170 0 270 4 270 10 0 5 -12 12 -27 15 -106 22
-153 52 -178 112 -31 75 -36 194 -33 926 l3 728 814 -921 c447 -506 817 -920
822 -920 5 0 10 453 11 1008 l3 1007 23 50 c12 27 30 57 39 67 14 16 72 38
136 52 15 4 27 11 27 16 0 6 -100 10 -270 10 -148 0 -270 -4 -270 -9 0 -4 27
-14 59 -20 121 -24 167 -83 182 -238 5 -56 8 -414 7 -828 l-3 -729 -803 912
-804 912 -204 0 c-115 0 -204 -4 -204 -9z"/>
<path d="M7000 2210 c0 -5 12 -10 26 -10 48 0 107 -24 140 -56 66 -67 64 -34
64 -999 0 -972 3 -930 -69 -1005 -35 -36 -89 -60 -138 -60 -13 0 -23 -4 -23
-10 0 -14 1058 -13 1170 0 343 42 627 243 782 555 168 336 138 777 -74 1095
-182 273 -463 438 -832 489 -102 14 -1046 15 -1046 1z m1105 -89 c278 -77 496
-271 605 -540 121 -296 125 -682 11 -949 -77 -183 -220 -342 -379 -421 -123
-62 -208 -75 -472 -76 -268 0 -302 7 -363 74 -27 30 -37 52 -46 103 -17 98
-16 1808 2 1809 6 0 50 7 97 14 56 9 149 13 275 11 158 -3 203 -7 270 -25z"/>
<path d="M12512 2209 c2 -6 29 -19 60 -29 82 -25 118 -51 213 -153 l85 -92 0
-741 c0 -448 -4 -783 -11 -845 -17 -167 -61 -238 -159 -255 -54 -9 -70 -15
-70 -25 0 -5 110 -9 270 -9 170 0 270 4 270 10 0 5 -12 12 -27 15 -108 22
-158 59 -181 131 -26 82 -33 280 -30 954 l3 685 813 -920 c448 -506 820 -921
828 -923 12 -3 14 139 14 995 0 1112 -2 1073 65 1132 31 27 69 43 129 53 11 2
21 9 24 16 3 9 -54 12 -262 12 -146 0 -266 -4 -266 -9 0 -4 30 -16 67 -25 77
-19 115 -49 147 -116 21 -45 21 -53 23 -860 l3 -815 -38 43 c-20 23 -381 434
-802 912 l-765 869 -203 0 c-147 1 -203 -2 -200 -10z"/>
<path d="M15282 2208 c3 -7 24 -17 49 -23 79 -21 124 -52 218 -151 l92 -97 -3
-821 c-3 -821 -3 -821 -26 -888 -30 -90 -65 -118 -174 -142 -16 -4 -28 -11
-28 -16 0 -6 98 -10 265 -10 167 0 265 4 265 10 0 5 -12 12 -27 16 -101 21
-162 68 -183 141 -22 76 -29 303 -30 956 0 452 3 666 10 662 6 -4 373 -417
817 -918 443 -502 812 -913 820 -915 11 -3 13 167 13 990 0 1103 -2 1068 64
1134 29 29 52 39 139 58 15 4 27 11 27 16 0 6 -100 10 -270 10 -165 0 -270 -4
-270 -10 0 -5 17 -12 38 -15 91 -16 153 -59 184 -130 10 -24 14 -200 15 -850
l3 -820 -28 32 c-15 18 -376 428 -802 912 l-775 880 -203 1 c-154 0 -203 -3
-200 -12z"/>
<path d="M18140 2210 c0 -5 12 -10 28 -10 50 0 106 -22 138 -54 65 -65 64 -45
64 -1010 0 -568 -4 -884 -10 -908 -21 -73 -92 -130 -179 -144 -117 -19 14 -24
599 -24 352 0 640 3 640 6 0 3 16 77 35 165 40 183 38 169 26 169 -5 0 -23
-29 -39 -64 -39 -83 -99 -148 -165 -177 -51 -23 -59 -24 -325 -24 l-274 0 -33
36 c-52 57 -56 95 -53 539 l3 395 255 0 c169 -1 269 -5 296 -13 55 -16 120
-86 136 -147 7 -25 18 -45 25 -45 10 0 13 50 13 239 0 150 -4 242 -10 246 -6
3 -12 0 -14 -7 -2 -7 -9 -33 -16 -58 -17 -64 -63 -103 -147 -126 -58 -16 -104
-19 -303 -19 l-235 0 -3 488 -2 487 279 0 c254 0 285 -2 346 -21 107 -33 160
-96 180 -211 3 -21 10 -38 15 -38 6 0 10 69 10 170 l0 170 -640 0 c-420 0
-640 -3 -640 -10z"/>
<path d="M21370 2210 c0 -5 10 -10 23 -10 48 0 103 -24 138 -59 72 -71 70 -41
67 -1017 l-3 -869 -30 -60 c-35 -71 -75 -100 -145 -110 -136 -19 -12 -25 488
-25 659 0 724 6 913 85 207 87 415 290 510 501 139 306 124 699 -37 993 -171
312 -468 508 -857 565 -83 13 -203 16 -586 16 -314 0 -481 -3 -481 -10z m1048
-80 c178 -36 313 -104 434 -218 220 -208 330 -520 315 -895 -6 -159 -21 -236
-66 -352 -49 -129 -98 -202 -206 -311 -84 -85 -113 -107 -185 -142 -131 -64
-213 -77 -480 -77 -235 0 -273 5 -333 47 -15 11 -37 38 -50 61 l-22 42 -3 917
-3 917 33 6 c167 30 431 33 566 5z"/>
<path d="M24040 2211 c0 -5 24 -15 54 -21 70 -14 116 -45 141 -95 19 -38 20
-66 26 -725 4 -440 10 -709 18 -753 36 -215 146 -380 328 -493 233 -146 531
-161 774 -39 130 66 210 143 281 272 l38 68 0 -182 0 -183 225 0 c193 0 225 2
225 15 0 8 -9 15 -20 15 -10 0 -44 9 -74 20 -71 27 -111 72 -125 142 -8 37
-11 314 -9 913 l3 860 27 57 c31 66 65 92 145 108 29 6 53 16 53 21 0 5 -137
9 -340 9 -200 0 -340 -4 -340 -9 0 -5 23 -14 50 -20 80 -17 127 -46 152 -94
l23 -42 0 -725 c0 -811 3 -775 -73 -930 -112 -228 -408 -370 -662 -316 -220
46 -382 206 -440 430 -33 131 -41 335 -38 941 3 524 4 573 21 610 33 73 69
101 165 125 94 24 37 30 -293 30 -200 0 -335 -4 -335 -9z"/>
<path d="M32080 2211 c0 -5 28 -14 61 -20 85 -15 141 -44 193 -101 24 -27 177
-252 340 -500 l297 -450 -3 -447 c-3 -443 -3 -448 -26 -494 -24 -50 -78 -94
-127 -104 -16 -3 -40 -8 -52 -11 -13 -2 -23 -9 -23 -14 0 -6 124 -10 340 -10
216 0 340 4 340 10 0 5 -12 12 -27 16 -94 20 -163 68 -190 131 -10 26 -13 131
-13 502 l0 470 268 408 c283 433 343 508 440 557 29 15 78 32 108 38 29 6 54
15 54 19 0 5 -122 9 -271 9 -204 0 -270 -3 -267 -12 2 -6 19 -17 37 -23 84
-28 104 -112 52 -220 -29 -61 -436 -688 -450 -693 -8 -3 -447 651 -480 716
-51 101 -3 187 117 207 110 18 17 25 -338 25 -216 0 -380 -4 -380 -9z"/>
<path d="M34560 2211 c0 -5 25 -15 55 -21 78 -16 135 -62 157 -125 16 -46 17
-121 15 -940 l-2 -890 -22 -42 c-30 -56 -79 -91 -147 -105 -31 -7 -56 -16 -56
-20 0 -5 287 -7 637 -6 l637 3 37 160 c43 182 44 185 27 185 -7 -1 -28 -35
-47 -76 -40 -88 -94 -147 -159 -177 -42 -20 -68 -22 -259 -25 -173 -3 -222 -1
-267 12 -67 20 -117 65 -134 123 -9 30 -12 256 -12 904 0 827 1 866 19 906 25
54 87 99 157 113 30 6 54 16 54 21 0 5 -139 9 -345 9 -206 0 -345 -4 -345 -9z"/>
<path d="M36400 2211 c0 -4 23 -11 51 -14 76 -9 109 -33 144 -102 l30 -60 0
-900 0 -900 -23 -43 c-28 -52 -96 -98 -158 -108 -128 -19 7 -24 593 -22 l638
3 12 55 c53 238 60 280 49 280 -7 0 -18 -17 -25 -37 -16 -47 -63 -122 -93
-150 -13 -12 -48 -34 -78 -50 l-55 -28 -272 0 c-259 0 -273 1 -300 21 -58 43
-62 74 -63 538 l0 418 263 -4 c221 -4 269 -7 304 -22 54 -23 97 -72 120 -136
10 -27 21 -50 25 -50 5 0 8 110 8 245 0 229 -8 297 -25 208 -15 -81 -62 -132
-148 -159 -41 -13 -105 -18 -299 -22 l-248 -4 0 492 0 491 298 -3 c287 -3 299
-4 349 -27 91 -41 153 -127 153 -213 0 -16 5 -28 10 -28 6 0 10 63 10 170 l0
170 -635 0 c-349 0 -635 -4 -635 -9z"/>
<path d="M43300 2211 c0 -5 19 -12 43 -16 98 -17 178 -90 222 -203 14 -37 187
-498 384 -1025 198 -527 362 -961 365 -965 4 -3 10 -1 15 4 5 5 140 392 301
859 160 468 308 893 327 945 88 235 167 346 269 376 30 8 54 20 54 25 0 5
-110 9 -270 9 -269 0 -324 -7 -217 -30 76 -15 114 -41 126 -87 15 -52 13 -117
-4 -188 -10 -44 -469 -1405 -511 -1515 -5 -13 -6 -13 -14 0 -20 38 -571 1545
-581 1590 -12 57 -6 111 18 146 14 22 66 43 146 59 15 3 27 10 27 15 0 6 -128
10 -350 10 -204 0 -350 -4 -350 -9z"/>
<path d="M50890 2205 c0 -10 10 -15 30 -15 69 0 140 -48 171 -115 18 -38 19
-86 19 -933 0 -783 -2 -897 -15 -930 -29 -68 -80 -107 -157 -120 -23 -4 -43
-13 -46 -20 -3 -9 71 -12 337 -12 216 0 341 4 341 10 0 5 -12 12 -27 15 -82
17 -111 30 -149 69 -61 61 -64 84 -64 551 l0 405 58 0 c147 0 280 -75 403
-228 33 -41 123 -180 200 -310 146 -246 225 -370 291 -459 l39 -53 194 0 c127
0 195 4 195 10 0 6 -6 12 -12 14 -110 32 -184 90 -265 208 -27 40 -107 172
-178 293 -70 121 -149 252 -176 290 -57 83 -154 180 -226 228 l-53 34 63 17
c177 49 313 178 364 345 24 80 22 245 -4 333 -43 144 -135 253 -267 319 -133
65 -166 69 -643 69 -369 0 -423 -2 -423 -15z m754 -62 c86 -21 132 -48 204
-116 71 -69 112 -144 138 -253 21 -92 15 -246 -14 -327 -67 -186 -241 -277
-533 -277 l-109 0 0 490 0 490 23 5 c75 16 198 11 291 -12z"/>
<path d="M53190 2210 c0 -5 12 -10 28 -10 50 0 106 -22 138 -54 65 -65 64 -45
64 -1010 0 -568 -4 -884 -10 -908 -21 -73 -92 -130 -179 -144 -117 -19 14 -24
598 -24 l638 0 32 148 c17 81 34 157 37 169 13 49 -16 20 -47 -47 -38 -83
-102 -148 -174 -176 -45 -17 -78 -19 -318 -19 l-269 0 -33 36 c-52 57 -56 95
-53 539 l3 395 255 -1 c166 0 269 -4 296 -12 55 -16 120 -86 136 -147 7 -25
18 -45 25 -45 10 0 13 50 13 239 0 150 -4 242 -10 246 -6 3 -12 0 -14 -7 -2
-7 -9 -32 -15 -55 -18 -68 -53 -100 -134 -125 -66 -21 -91 -23 -312 -23 l-240
0 -3 488 -2 487 278 0 c296 0 345 -6 420 -52 50 -31 90 -92 103 -159 6 -32 16
-59 20 -59 5 0 9 77 9 170 l0 170 -640 0 c-420 0 -640 -3 -640 -10z"/>
<path d="M56420 2211 c0 -5 17 -12 38 -16 95 -17 161 -70 182 -143 14 -53 14
-1773 -1 -1827 -20 -72 -82 -117 -191 -140 -16 -3 -28 -10 -28 -15 0 -6 124
-10 340 -10 216 0 340 4 340 10 0 5 -12 12 -27 15 -113 24 -163 63 -188 148
-13 44 -15 116 -13 442 l3 389 60 -5 c137 -10 330 -3 407 15 318 72 488 268
488 563 0 243 -141 440 -378 530 -130 48 -182 53 -623 53 -232 0 -409 -4 -409
-9z m805 -63 c158 -34 275 -147 329 -317 46 -145 43 -338 -6 -470 -43 -114
-175 -213 -326 -242 -64 -12 -301 -8 -334 6 -17 7 -18 41 -18 511 0 437 2 505
15 510 58 23 241 24 340 2z"/>
<path d="M63090 2211 c0 -4 23 -11 51 -14 96 -12 146 -66 169 -182 8 -43 10
-302 8 -915 -3 -955 2 -892 -76 -962 -38 -34 -93 -58 -134 -58 -10 0 -18 -5
-18 -10 0 -7 214 -9 636 -8 l637 3 37 167 c24 111 33 168 25 168 -6 0 -22 -25
-34 -55 -37 -89 -82 -139 -158 -177 l-67 -33 -256 -3 c-287 -3 -306 1 -345 68
-19 34 -20 54 -23 474 l-3 438 263 -4 c222 -4 270 -7 305 -22 55 -23 96 -71
118 -135 9 -28 21 -51 26 -51 5 0 9 103 9 245 0 135 -4 245 -8 245 -5 0 -16
-26 -25 -59 -12 -43 -26 -67 -52 -89 -63 -56 -112 -65 -387 -70 l-248 -4 0
492 0 491 298 -3 c288 -3 299 -4 350 -27 88 -40 152 -132 152 -220 0 -12 5
-21 10 -21 6 0 10 63 10 170 l0 170 -635 0 c-349 0 -635 -4 -635 -9z"/>
</g>
</svg>
